:SAMPLES-PER-SECOND 30
:FULLY-SPECIFIED
:DEGREES
47
root  -44.7867 39.8309 -3.25375 -42.9638 84.6054 -41.353
RightUpLeg  -10.148 -12.7941 5.71854
RightLeg  24.3736 -3.54527 -0.047165
RightFoot  -12.188 -0.118871 -4.97089
RightToes  0.000482159 0.542163 -0.142577
Spine  13.2491 -1.11702 9.43975
Spine1  6.44177 -0.379229 3.7309
HEad  2.14391 3.8138 -5.31193
LeftShoulder1  6.10144 -10.1429 -38.5264
LeftArm  -23.5476 18.194 -30.2416
LeftForeArm  51.6483 -63.1044 -17.0353
LeftHand  -0.25398 0.0180481 5.50724
RightShoulder  3.80405 7.04486 30.0987
RightArm  -10.6796 -10.5868 36.093
RightForeArm  1.42621 39.9741 9.30028
RightHand  -1.79883 4.03938 -22.2194
LeftUpLeg  -17.4916 -0.422822 4.29461
LeftLeg  60.6199 2.41473 5.19611
LeftFoot  3.28311 0.50929 -4.12084
LeftToes  1.06246e-005 4.65855e-005 -8.18503e-006
48
root  -43.4313 40.0948 -3.07963 -27.8483 84.7172 -26.1993
RightUpLeg  -6.40143 -11.3826 3.47389
RightLeg  21.8051 -4.14518 1.09293
RightFoot  -13.1482 -0.160154 -4.54989
RightToes  0.000482159 0.542163 -0.142577
Spine  13.1387 -0.508444 8.41724
Spine1  5.736 0.230826 2.6194
HEad  2.17461 4.00181 -5.90931
LeftShoulder1  6.17049 -10.3306 -38.4247
LeftArm  -22.7116 18.5602 -30.4579
LeftForeArm  54.7982 -65.8104 -19.2757
LeftHand  -0.25398 0.0180481 5.50724
RightShoulder  3.79905 7.04244 30.0592
RightArm  -11.0355 -8.7323 36.9843
RightForeArm  2.60652 42.6822 10.16
RightHand  -1.85341 4.2845 -22.3158
LeftUpLeg  -20.1882 0.540109 3.10206
LeftLeg  54.4097 3.82299 6.17186
LeftFoot  1.80756 0.307546 -2.7851
LeftToes  1.06246e-005 4.65855e-005 -8.18503e-006
49
root  -42.098 40.2562 -2.91732 -14.6743 84.305 -13.1488
RightUpLeg  -3.06478 -10.4137 1.66001
RightLeg  19.4631 -4.06592 2.1739
RightFoot  -14.1835 -0.194313 -3.95981
RightToes  0.000482159 0.542163 -0.142577
Spine  13.0075 0.0851355 7.80759
Spine1  5.15091 0.906948 1.22082
HEad  1.9011 4.11628 -6.53317
LeftShoulder1  6.1974 -10.4006 -38.3956
LeftArm  -21.7336 18.605 -30.7227
LeftForeArm  55.9555 -66.7982 -20.2513
LeftHand  -0.25398 0.0180481 5.50724
RightShoulder  3.86856 7.19777 30.1881
RightArm  -11.0532 -7.07477 37.7937
RightForeArm  2.53057 44.7574 10.9423
RightHand  -1.95439 4.71688 -22.526
LeftUpLeg  -21.6626 2.66021 2.08126
LeftLeg  45.0244 5.34574 6.10478
LeftFoot  0.0875994 0.343274 -3.44409
LeftToes  1.06246e-005 4.65855e-005 -8.18503e-006
50
root  -40.7485 40.3037 -2.78006 -8.0074 83.7056 -6.97018
RightUpLeg  -0.346605 -9.76091 0.50409
RightLeg  17.5809 -3.8989 3.00253
RightFoot  -15.127 -0.232237 -3.92078
RightToes  0.000482159 0.542163 -0.142577
Spine  12.3009 0.523739 7.76483
Spine1  5.09242 1.42413 -0.120022
HEad  1.27212 4.36606 -7.11524
LeftShoulder1  6.1898 -10.3372 -38.5379
LeftArm  -20.8467 18.3705 -31.0474
LeftForeArm  55.329 -66.1676 -19.6249
LeftHand  -0.25398 0.0180481 5.50724
RightShoulder  3.97551 7.46481 30.2855
RightArm  -10.3943 -5.2782 38.5289
RightForeArm  2.19397 46.0034 11.4635
RightHand  -2.07779 5.16125 -22.9378
LeftUpLeg  -22.2056 6.07551 0.941283
LeftLeg  32.6775 5.05341 4.05909
LeftFoot  -0.614853 0.38517 -4.06321
LeftToes  1.06246e-005 4.65855e-005 -8.18503e-006
51
root  -39.3691 40.3408 -2.65656 -2.1357 82.9267 -1.50194
RightUpLeg  2.63078 -9.29437 -0.671742
RightLeg  15.31 -3.37803 3.54943
RightFoot  -15.7279 -0.263956 -4.11294
RightToes  0.000482159 0.542163 -0.142577
Spine  11.5469 0.922543 7.4753
Spine1  5.52284 1.97119 -1.55096
HEad  0.370936 4.78695 -7.55846
LeftShoulder1  6.21953 -10.3038 -38.8465
LeftArm  -20.111 18.1923 -31.4185
LeftForeArm  53.7913 -63.986 -17.617
LeftHand  -0.25398 0.0180481 5.50724
RightShoulder  4.08005 7.73841 30.334
RightArm  -9.04918 -3.43658 39.1477
RightForeArm  2.69017 46.223 11.5206
RightHand  -2.10439 5.28961 -22.9532
LeftUpLeg  -21.4666 9.50556 -0.471773
LeftLeg  18.3142 3.25499 0.830699
LeftFoot  0.17607 0.362447 -3.59806
LeftToes  1.06246e-005 4.65855e-005 -8.18503e-006
